<svg width="53" height="45" viewBox="0 0 53 45" fill="none" xmlns="http://www.w3.org/2000/svg">
<path d="M37.5419 10.6492C37.5419 15.5283 30.8155 24.2226 27.8621 27.8054C27.7001 28.0059 27.4933 28.168 27.2574 28.2794C27.0215 28.3909 26.7626 28.4488 26.5003 28.4488C26.238 28.4488 25.9792 28.3909 25.7433 28.2794C25.5074 28.168 25.3006 28.0059 25.1386 27.8054C22.1851 24.222 15.4588 15.5276 15.4588 10.6492C15.4813 7.81732 16.6546 5.10886 18.7228 3.1141C20.7911 1.11935 23.5867 0 26.5003 0C29.414 0 32.2096 1.11935 34.2778 3.1141C36.3461 5.10886 37.5193 7.81732 37.5419 10.6492ZM38.2779 17.8335C38.5999 17.2173 38.8947 16.6004 39.161 15.9926C39.2067 15.885 39.2531 15.7691 39.2988 15.6622L49.973 11.5172C50.3079 11.3869 50.6706 11.3384 51.0292 11.3759C51.3879 11.4134 51.7316 11.5358 52.0303 11.7323C52.329 11.9289 52.5736 12.1936 52.7427 12.5033C52.9117 12.813 53.0001 13.1583 53 13.5089V37.7065C52.9985 38.1355 52.8654 38.5544 52.6175 38.9095C52.3697 39.2645 52.0184 39.5396 51.6087 39.6994L38.2779 44.8728V17.8335ZM12.661 12.2848C12.9063 13.5607 13.3015 14.805 13.839 15.9932C14.104 16.6011 14.4001 17.2167 14.7221 17.8342V40.3009L3.02696 44.8464C2.69198 44.9767 2.32922 45.0252 1.97046 44.9877C1.6117 44.9501 1.26789 44.8276 0.96915 44.6309C0.670406 44.4342 0.425842 44.1693 0.256882 43.8594C0.0879211 43.5496 -0.00028138 43.2041 6.7434e-07 42.8534V18.6558C0.00145592 18.2268 0.134638 17.8079 0.382492 17.4529C0.630347 17.0978 0.981592 16.8227 1.39125 16.6629L12.6723 12.2842L12.661 12.2848ZM30.1623 29.593C31.4416 28.0379 33.447 25.5092 35.3338 22.7126V44.9893L17.6669 40.0832V22.7126C19.553 25.5092 21.5591 28.0385 22.8384 29.593C23.2768 30.1282 23.8338 30.5605 24.4678 30.8576C25.1019 31.1547 25.7968 31.309 26.5007 31.309C27.2046 31.309 27.8994 31.1547 28.5335 30.8576C29.1676 30.5605 29.7239 30.1282 30.1623 29.593ZM26.5 13.5089C27.2272 13.5083 27.9379 13.2981 28.5422 12.905C29.1466 12.5118 29.6174 11.9533 29.8952 11.3001C30.1731 10.6469 30.2454 9.92832 30.1032 9.23516C29.9609 8.54199 29.6104 7.90539 29.0959 7.40582C28.5815 6.90624 27.9262 6.56613 27.2129 6.42847C26.4996 6.29081 25.7604 6.36178 25.0886 6.63242C24.4168 6.90305 23.8426 7.3612 23.4387 7.94895C23.0347 8.53669 22.8191 9.22765 22.8191 9.93447C22.8193 10.4041 22.9147 10.8691 23.0998 11.3029C23.2848 11.7367 23.556 12.1308 23.8978 12.4627C24.2396 12.7947 24.6454 13.0579 25.0919 13.2374C25.5383 13.4169 26.0168 13.5092 26.5 13.5089Z" fill="#35A5B5"/>
</svg>
